<?xml version="1.0" encoding="UTF-8"?>
<svg id="Layer_1" xmlns="http://www.w3.org/2000/svg" version="1.1" viewBox="0 0 130.08 130.08">
  <!-- Generator: Adobe Illustrator 29.4.0, SVG Export Plug-In . SVG Version: 2.1.0 Build 152)  -->
  <defs>
    <style>
      .st0 {
        fill: #000303;
        isolation: isolate;
        opacity: .2;
      }
    </style>
  </defs>
  <path class="st0" d="M57.2,82.77s1.42,2.51-9.49-5.28c-2.74-1.96-8.74-6.45-12.8-13.45-3.84-6.61-4.45-10.69-4.45-10.69l.9,12.49,10.96,14.88,5.99,5.83,9.48,2.83.36-2.71-1.59-.82"/>
  <path d="M125.47,60.32h-1.71c-.99,0-1.79.8-1.79,1.79s.8,1.79,1.79,1.8h1.71c.99,0,1.79-.8,1.79-1.79s-.8-1.79-1.79-1.79h0Z"/>
  <path d="M110.17,63.91h7.02c.99,0,1.79-.8,1.79-1.79s-.8-1.79-1.79-1.79h-7.02c-.99,0-1.79.8-1.79,1.79s.8,1.79,1.79,1.79Z"/>
  <path d="M110.17,56.13c.46,0,.92-.18,1.27-.53l6.42-6.42c.7-.7.7-1.84,0-2.54s-1.84-.7-2.54,0l-6.42,6.42c-.7.7-.7,1.84,0,2.54.35.35.81.53,1.27.53h0Z"/>
  <path d="M108.9,71.16l6.42,6.42c.35.35.81.53,1.27.53s.92-.18,1.27-.53c.7-.7.7-1.84,0-2.54l-6.42-6.42c-.7-.7-1.84-.7-2.54,0-.7.7-.7,1.84,0,2.54h0Z"/>
  <path d="M5.79,63.91c.99,0,1.79-.8,1.79-1.8s-.8-1.79-1.79-1.79h-1.71c-.99,0-1.79.8-1.79,1.79s.8,1.79,1.79,1.79h1.71,0Z"/>
  <path d="M10.56,62.11c0,.99.8,1.79,1.79,1.79h7.02c.99,0,1.79-.8,1.79-1.79s-.8-1.79-1.79-1.79h-7.02c-.99,0-1.79.8-1.79,1.79Z"/>
  <path d="M19.39,56.13c.46,0,.92-.18,1.27-.53.7-.7.7-1.84,0-2.54l-6.42-6.42c-.7-.7-1.84-.7-2.54,0-.7.7-.7,1.84,0,2.54l6.42,6.42c.35.35.81.53,1.27.53h0Z"/>
  <path d="M18.11,68.62l-6.42,6.42c-.7.7-.7,1.84,0,2.54.35.35.81.53,1.27.53s.92-.18,1.27-.53l6.42-6.42c.7-.7.7-1.84,0-2.54-.7-.7-1.84-.7-2.54,0h0Z"/>
  <path d="M49.18,34.72h-.06c-11.64,0-21.14,9.45-21.18,21.1-.06,19.07,18.99,32.4,30.35,38.64.27.15.57.22.86.22.41,0,.82-.14,1.15-.41.57-.47.79-1.24.57-1.94l-2.65-8.17,8.58-6.83c.45-.36.71-.92.67-1.5s-.34-1.11-.84-1.42l-11.85-7.49,8.99-6.86c.47-.36.74-.93.7-1.52-.03-.59-.36-1.13-.86-1.44l-5.89-3.58,5.06-12.12c.31-.74.09-1.59-.53-2.1-3.66-2.93-8.3-4.55-13.06-4.57ZM53.81,53.54c-.34.82-.03,1.77.72,2.23l4.97,3.02-8.95,6.83c-.47.36-.73.92-.7,1.51.03.59.34,1.13.84,1.44l11.89,7.52-7.58,6.04c-.59.47-.82,1.25-.59,1.96l1.58,4.86c-9.59-5.94-24.5-17.68-24.45-33.12.04-9.67,7.93-17.52,17.6-17.52h.05c3.5.01,6.91,1.06,9.75,2.98l-5.11,12.24h0Z"/>
  <path d="M63.56,52.83l8.68,5.3-9.09,6.94c-.47.36-.73.92-.71,1.5.03.59.34,1.13.84,1.44l11.71,7.4-11.6,9.24c-.59.47-.82,1.25-.59,1.96l2.72,8.41c.16.5.53.9,1.01,1.1.22.09.46.14.7.14.28,0,.55-.06.8-.19,7.87-3.89,33.54-18.27,33.61-40h0c.01-5.66-2.17-10.98-6.15-14.99-3.99-4.02-9.3-6.24-14.97-6.25h-.07c-4.51,0-8.8,1.4-12.42,4.05-.26.2-.47.46-.6.76l-4.57,10.98c-.34.82-.03,1.76.72,2.23h0ZM70.53,41.48c2.93-2.02,6.31-3.07,9.96-3.07,4.71.01,9.12,1.86,12.43,5.19,3.31,3.33,5.11,7.75,5.11,12.45-.06,18.24-20.84,31.14-29.75,35.84l-1.69-5.22,12.61-10.03c.45-.36.71-.92.67-1.5-.03-.58-.34-1.11-.84-1.42l-11.66-7.37,9.13-6.97c.47-.36.74-.93.71-1.52-.03-.59-.35-1.13-.86-1.44l-9.61-5.86,3.78-9.08h0Z"/>
</svg>